<?xml version="1.0" encoding="UTF-8"?>
<svg width="249px" height="69px" viewBox="0 0 249 69" version="1.1" xmlns="http://www.w3.org/2000/svg" xmlns:xlink="http://www.w3.org/1999/xlink">
    <title>sprite</title>
    <g id="页面-1" stroke="none" stroke-width="1" fill="none" fill-rule="evenodd">
        <g id="sprite">
            <g id="编组" transform="translate(0, 5)" fill="#000000">
                <path d="M11.5656391,4.43436088 L9,7 L16,7 L16,0 L13.0418424,2.95815758 C11.5936787,1.73635959 9.72260775,1 7.67955083,1 C4.22126258,1 1.25575599,3.10984908 0,6 L2,7 C2.93658775,4.60974406 5.12943697,3.08011229 7.67955083,3 C9.14881247,3.0528747 10.4994783,3.57862053 11.5656391,4.43436088 Z" id="路径" transform="translate(8, 3.5) scale(-1, 1) translate(-8, -3.5)"></path>
            </g>
            <g id="编组" transform="translate(18, 5)" fill="#000000">
                <path d="M11.5656391,4.43436088 L9,7 L16,7 L16,0 L13.0418424,2.95815758 C11.5936787,1.73635959 9.72260775,1 7.67955083,1 C4.22126258,1 1.25575599,3.10984908 0,6 L2,7 C2.93658775,4.60974406 5.12943697,3.08011229 7.67955083,3 C9.14881247,3.0528747 10.4994783,3.57862053 11.5656391,4.43436088 Z" id="路径"></path>
            </g>
            <g id="编组" transform="translate(38, 2)" fill="#000000">
                <path d="M8.11415105,9.22620087 C7.25615737,9.98007974 6.15240793,10.4336043 4.94818634,10.4336043 C2.21537849,10.4336043 0,8.09796244 0,5.21680217 C0,2.33564189 2.21537849,0 4.94818634,0 C7.68099419,0 9.89637268,2.33564189 9.89637268,5.21680217 C9.89637268,6.48639579 9.4662003,7.65006305 8.75113903,8.55463354 L8.97870903,8.79268293 L9.68944852,8.79268293 L13.2791328,12.5867209 L11.9386241,14 L8.33994316,10.2154472 L8.33994316,9.46612466 L8.11415105,9.22620087 Z M4.94818634,9.01084011 C6.93568296,9.01084011 8.54686731,7.31219146 8.54686731,5.21680217 C8.54686731,3.12141287 6.93568296,1.42276423 4.94818634,1.42276423 C2.96068972,1.42276423 1.34950536,3.12141287 1.34950536,5.21680217 C1.34950536,7.31219146 2.96068972,9.01084011 4.94818634,9.01084011 Z" id="形状"></path>
            </g>
            <g id="编组" transform="translate(56, 2)" fill="#000000">
                <path d="M9,0 L1,0 C0.45,0 0,0.45 0,1 L0,4 C0,4.55 0.45,5 1,5 L9,5 C9.55,5 10,4.55 10,4 L10,3 L11,3 L11,6 L4,6 L4,14 L6,14 L6,8 L13,8 L13,2 L10,2 L10,1 C10,0.45 9.55,0 9,0 Z" id="路径"></path>
            </g>
            <g id="编组" transform="translate(73.27, 3)" fill="#000000">
                <path d="M4.4408921e-16,1.55 L5.16,6.7 L2.73,12 L5.23,12 L6.87,8.42 L11.46,13 L12.73,11.73 L1.28,0.27 L4.4408921e-16,1.55 L4.4408921e-16,1.55 Z M3.55,0 L5.55,2 L7.31,2 L6.76,3.21 L8.47,4.92 L9.81,2 L13.73,2 L13.73,0 L3.55,0 L3.55,0 Z" id="形状"></path>
            </g>
            <g id="编组" transform="translate(93, 3)" fill="#000000">
                <path d="M9,3.5 C9,1.57 7.43,0 5.5,0 L0,0 L0,12 L6.25,12 C8.04,12 9.5,10.54 9.5,8.75 C9.5,7.45 8.73,6.34 7.63,5.82 C8.46,5.24 9,4.38 9,3.5 Z M5,2 C5.82999992,2 6.5,2.67 6.5,3.5 C6.5,4.33 5.82999992,5 5,5 L3,5 L3,2 L5,2 Z M3,10 L3,7 L5.5,7 C6.32999992,7 7,7.67 7,8.5 C7,9.33 6.32999992,10 5.5,10 L3,10 Z" id="形状"></path>
            </g>
            <g id="编组" transform="translate(110, 3)" fill="#000000">
                <polygon id="路径" points="4 0 4 2 6.58 2 2.92 10 0 10 0 12 8 12 8 10 5.42 10 9.08 2 12 2 12 0"></polygon>
            </g>
            <g id="编组" transform="translate(128, 3)" fill="#000000" fill-rule="nonzero">
                <path d="M6,12 C8.76,12 11,9.76 11,7 L11,0 L9,0 L9,7 C9,8.75029916 7.49912807,10 6,10 C4.50087193,10 3,8.75837486 3,7 L3,0 L1,0 L1,7 C1,9.76 3.24,12 6,12 Z M0,13 L0,15 L12,15 L12,13 L0,13 Z" id="形状"></path>
            </g>
            <g id="编组" transform="translate(145, 3)" fill="#010101">
                <path d="M2.8875,3.06 C2.8875,2.6025 2.985,2.18625 3.18375,1.8075 C3.3825,1.42875 3.66,1.10625 4.02,0.84 C4.38,0.57375 4.80375,0.3675 5.29875,0.22125 C5.79375,0.075 6.33375,0 6.92625,0 C7.53375,0 8.085,0.0825 8.58,0.25125 C9.075,0.42 9.49875,0.6525 9.85125,0.95625 C10.20375,1.25625 10.47375,1.6125 10.665,2.02875 C10.85625,2.44125 10.95,2.895 10.95,3.38625 L8.6925,3.38625 C8.6925,3.1575 8.655,2.94375 8.58375,2.74875 C8.5125,2.55 8.4,2.38125 8.25,2.2425 C8.1,2.10375 7.9125,1.99125 7.6875,1.91625 C7.4625,1.8375 7.19625,1.8 6.88875,1.8 C6.5925,1.8 6.3375,1.83375 6.11625,1.8975 C5.89875,1.96125 5.71875,2.05125 5.57625,2.1675 C5.43375,2.28375 5.325,2.41875 5.25375,2.5725 C5.1825,2.72625 5.145,2.895 5.145,3.0675 C5.145,3.4275 5.32875,3.73125 5.69625,3.975 C5.71780203,3.98908066 5.73942012,4.00311728 5.76118357,4.01733315 C6.02342923,4.18863185 6.5,4.5 7,5 L4,5 C4,5 3.21375,4.37625 3.17625,4.30875 C2.985,3.9525 2.8875,3.53625 2.8875,3.06 Z M14,6 L0,6 L0,8 L7.21875,8 C7.35375,8.0525 7.51875,8.105 7.63125,8.15375 C7.90875,8.2775 8.12625,8.40875 8.28375,8.53625 C8.44125,8.6675 8.54625,8.81 8.6025,8.96 C8.65875,9.11375 8.685,9.28625 8.685,9.47375 C8.685,9.65 8.65125,9.815 8.58375,9.965 C8.51625,10.11875 8.41125,10.25 8.2725,10.35875 C8.13375,10.4675 7.95375,10.55375 7.74,10.6175 C7.5225,10.68125 7.27125,10.71125 6.97875,10.71125 C6.6525,10.71125 6.35625,10.6775 6.09,10.61375 C5.82375,10.55 5.59875,10.445 5.41125,10.3025 C5.22375,10.16 5.0775,9.9725 4.9725,9.74375 C4.8675,9.515 4.78125,9.17 4.78125,9 L2.55,9 C2.55,9.2525 2.61,9.6875 2.72625,10.025 C2.8425,10.3625 3.0075,10.66625 3.21375,10.9325 C3.42,11.19875 3.6675,11.4275 3.94875,11.6225 C4.23,11.8175 4.53375,11.9825 4.86375,12.11 C5.19375,12.24125 5.535,12.33875 5.89875,12.39875 C6.25875,12.4625 6.6225,12.4925 6.9825,12.4925 C7.5825,12.4925 8.13,12.425 8.6175,12.28625 C9.105,12.1475 9.525,11.94875 9.87,11.69375 C10.215,11.435 10.48125,11.12 10.6725,10.74125 C10.86375,10.3625 10.95375,9.935 10.95375,9.455 C10.95375,9.005 10.875,8.6 10.72125,8.24375 C10.68375,8.1575 10.6425,8.075 10.59375,7.9925 L14,8 L14,6 Z" id="形状"></path>
            </g>
            <g id="编组" transform="translate(164.5, 1)" fill="#000000">
                <path d="M6.5,0 L4.5,0 L0,12 L2,12 L3.12,9 L7.87,9 L8.99,12 L10.99,12 L6.5,0 L6.5,0 Z M3.88,7 L5.5,2.67 L7.12,7 L3.88,7 L3.88,7 Z" id="形状"></path>
            </g>
            <g id="编组" transform="translate(180.9975, 0)" fill="#000000" fill-rule="nonzero">
                <g transform="translate(0, 0)" id="形状">
                    <path d="M12.5025,8.87 C12.5025,8.87 11.0025,10.49 11.0025,11.49 C11.0025,12.32 11.6725,12.99 12.5025,12.99 C13.3325,12.99 14.0025,12.32 14.0025,11.49 C14.0025,10.5 12.5025,8.87 12.5025,8.87 L12.5025,8.87 Z M10.7125,6.79 L3.9125,0 L2.8525,1.06 L4.4425,2.65 L0.2925,6.79 C-0.0975,7.18 -0.0975,7.81 0.2925,8.2 L4.7925,12.7 C4.9925,12.9 5.2425,13 5.5025,13 C5.7625,13 6.0125,12.9 6.2125,12.71 L10.7125,8.21 C11.1025,7.82 11.1025,7.18 10.7125,6.79 L10.7125,6.79 Z M2.2125,7 L5.5025,3.71 L8.7925,7 L2.2125,7 L2.2125,7 Z"></path>
                </g>
            </g>
            <g id="编组" transform="translate(198, 2)" fill="#000000">
                <path d="M2,4 L0,4 L0,0 L7,0 L7,2 L2,2 L2,4 Z M9,2 L9,0 L16,0 L16,4 L14,4 L14,2 L9,2 Z M9,12 L14,12 L14,10 L16,10 L16,14 L9,14 L9,12 Z M0,10 L2,10 L2,12 L7,12 L7,14 L0,14 L0,10 Z M0,6 L4,6 L4,4 L7,7 L4,10 L4,8 L0,8 L0,6 Z M9,7 L12,4 L12,6 L16,6 L16,8 L12,8 L12,10 L9,7 Z" id="形状"></path>
            </g>
            <g id="编组" transform="translate(217, 2)" fill="#000000">
                <path d="M0,14 L10,14 L10,12 L0,12 L0,14 Z M10,4 L0,4 L0,6 L10,6 L10,4 Z M0,0 L0,2 L14,2 L14,0 L0,0 Z M0,10 L14,10 L14,8 L0,8 L0,10 Z" id="形状"></path>
            </g>
            <g id="编组" transform="translate(235, 2)" fill="#000000">
                <path d="M2,12 L2,14 L12,14 L12,12 L2,12 Z M2,4 L2,6 L12,6 L12,4 L2,4 Z M0,10 L14,10 L14,8 L0,8 L0,10 Z M0,0 L0,2 L14,2 L14,0 L0,0 Z" id="形状"></path>
            </g>
            <g id="编组" transform="translate(1, 20)" fill="#000000">
                <path d="M4,14 L14,14 L14,12 L4,12 L4,14 Z M0,10 L14,10 L14,8 L0,8 L0,10 Z M0,0 L0,2 L14,2 L14,0 L0,0 Z M4,6 L14,6 L14,4 L4,4 L4,6 Z" id="形状"></path>
            </g>
            <g id="编组" transform="translate(20, 20)" fill="#000000">
                <path d="M0,0 L0,2 L12,2 L12,0 L0,0 L0,0 Z M2.5,7 L5,7 L5,14 L7,14 L7,7 L9.5,7 L6,3.5 L2.5,7 L2.5,7 Z" id="形状"></path>
            </g>
            <g id="编组" transform="translate(38, 18)" fill="#000000">
                <path d="M9.5,3 L7,3 L7,0 L5,0 L5,3 L2.5,3 L6,6.5 L9.5,3 L9.5,3 Z M0,8 L0,10 L12,10 L12,8 L0,8 L0,8 Z M2.5,15 L5,15 L5,18 L7,18 L7,15 L9.5,15 L6,11.5 L2.5,15 L2.5,15 Z" id="形状"></path>
            </g>
            <g id="编组" transform="translate(56, 20)" fill="#000000">
                <path d="M9.5,7 L7,7 L7,0 L5,0 L5,7 L2.5,7 L6,10.5 L9.5,7 L9.5,7 Z M0,12 L0,14 L12,14 L12,12 L0,12 L0,12 Z" id="形状"></path>
            </g>
            <g id="编组" transform="translate(73, 21)" fill="#000000">
                <path d="M14,0 L0,0 L0,2 L14,2 L14,0 Z M0,12 L4,12 L4,10 L0,10 L0,12 Z M11.5,5 L0,5 L0,7 L11.75,7 C12.58,7 13.25,7.67 13.25,8.5 C13.25,9.33 12.58,10 11.75,10 L9,10 L9,8 L6,11 L9,14 L9,12 L11.5,12 C13.43,12 15,10.43 15,8.5 C15,6.57 13.43,5 11.5,5 Z" id="形状"></path>
            </g>
            <g id="编组" transform="translate(91, 21)" fill="#000000">
                <path d="M0,0 L0,1 L6,7 L6,12 L8,11 L8,7 L14,1 L14,0 L0,0 Z M4,3 L10,3 L7,6 L4,3 Z" id="形状"></path>
            </g>
            <g id="编组" transform="translate(111, 20)" fill="#000000">
                <polygon id="路径" points="10 0 0 0 0 1.8 5.5 7 0 12.2 0 14 10 14 10 12 3.1 12 8 7 3.1 2 10 2"></polygon>
            </g>
            <g id="编组" transform="translate(130, 25)" fill="#000000">
                <polygon id="路径" points="0 0 4 4 8 0"></polygon>
            </g>
            <g id="编组" transform="translate(150, 23)" fill="#000000">
                <polygon id="路径" transform="translate(2, 4) rotate(-90) translate(-2, -4)" points="-2 2 2 6 6 2"></polygon>
            </g>
            <g id="编组" transform="translate(161, 23)" fill="#000000">
                <path d="M1.9,4 C1.9,2.84 2.84,1.9 4,1.9 L8,1.9 L8,0 L4,0 C1.79,0 0,1.79 0,4 C0,6.21 1.79,8 4,8 L8,8 L8,6.1 L4,6.1 C2.84,6.1 1.9,5.16 1.9,4 L1.9,4 Z M14,0 L10,0 L10,1.9 L14,1.9 C15.16,1.9 16.1,2.84 16.1,4 C16.1,5.16 15.16,6.1 14,6.1 L10,6.1 L10,8 L14,8 C16.21,8 18,6.21 18,4 C18,1.79 16.21,0 14,0 L14,0 Z M6,5 L12,5 L12,3 L6,3 L6,5 L6,5 Z" id="形状"></path>
            </g>
            <g id="编组" transform="translate(180, 19)" fill="#000000">
                <path d="M15,0 C15.55,0 16,0.45 16,1 L16,15 C16,15.55 15.55,16 15,16 L1,16 C0.45,16 0,15.55 0,15 L0,1 C0,0.45 0.45,0 1,0 L15,0 Z M2,2 L2,14 L14,14 L14,2 L2,2 Z M6,12 L4,12 L4,7 L6,7 L6,12 L6,12 Z M9,12 L7,12 L7,4 L9,4 L9,12 L9,12 Z M12,12 L10,12 L10,8 L12,8 L12,12 L12,12 Z" id="形状"></path>
            </g>
            <g id="编组" transform="translate(198.5, 21.5)">
                <polygon id="路径" stroke="#000000" points="0 0 15 0 15 12 0 12"></polygon>
                <polygon id="路径" fill="#000000" fill-rule="nonzero" points="4.5 4.5 5.5 4.5 5.5 11.5 4.5 11.5"></polygon>
                <polygon id="路径" fill="#D8D8D8" fill-rule="nonzero" points="0.5 0.5 14.5 0.5 14.5 3.5 0.5 3.5"></polygon>
                <path d="M0.5,3.5 L14.5,3.5 L14.5,4.5 L0.5,4.5 L0.5,3.5 Z M0.5,7.5 L14.5,7.5 L14.5,8.5 L0.5,8.5 L0.5,7.5 Z" id="形状" fill="#000000" fill-rule="nonzero"></path>
            </g>
            <g id="编组" transform="translate(217.5, 25.5)" fill="#000000">
                <path d="M1.5,0 C0.67,0 0,0.67 0,1.5 C0,2.33 0.67,3 1.5,3 C2.33,3 3,2.33 3,1.5 C3,0.67 2.33,0 1.5,0 L1.5,0 Z M11.5,0 C10.67,0 10,0.67 10,1.5 C10,2.33 10.67,3 11.5,3 C12.33,3 13,2.33 13,1.5 C13,0.67 12.33,0 11.5,0 L11.5,0 Z M6.5,0 C5.67,0 5,0.67 5,1.5 C5,2.33 5.67,3 6.5,3 C7.33,3 8,2.33 8,1.5 C8,0.67 7.33,0 6.5,0 L6.5,0 Z" id="形状"></path>
            </g>
            <g id="编组" transform="translate(237, 22)" fill="#000000">
                <polygon id="路径" points="6 4 6 0 4 0 4 4 0 4 0 6 4 6 4 10 6 10 6 6 10 6 10 4"></polygon>
            </g>
            <g id="编组" transform="translate(1, 38)" fill="#000000">
                <path d="M0,0 L0,14 L14,14 L14,0 L0,0 L0,0 Z M6,12 L2,12 L2,8 L6,8 L6,12 L6,12 Z M6,6 L2,6 L2,2 L6,2 L6,6 L6,6 Z M12,12 L8,12 L8,8 L12,8 L12,12 L12,12 Z M12,6 L8,6 L8,2 L12,2 L12,6 L12,6 Z" id="形状"></path>
            </g>
            <g id="编组" transform="translate(19, 38)" fill="#000000">
                <path d="M0,14 L2,14 L2,12 L0,12 L0,14 L0,14 Z M2,3 L0,3 L0,5 L2,5 L2,3 L2,3 Z M3,14 L5,14 L5,12 L3,12 L3,14 L3,14 Z M11,0 L9,0 L9,2 L11,2 L11,0 L11,0 Z M2,0 L0,0 L0,2 L2,2 L2,0 L2,0 Z M5,0 L3,0 L3,2 L5,2 L5,0 L5,0 Z M0,11 L2,11 L2,9 L0,9 L0,11 L0,11 Z M9,14 L11,14 L11,12 L9,12 L9,14 L9,14 Z M12,0 L12,2 L14,2 L14,0 L12,0 L12,0 Z M12,5 L14,5 L14,3 L12,3 L12,5 L12,5 Z M12,14 L14,14 L14,12 L12,12 L12,14 L12,14 Z M12,11 L14,11 L14,9 L12,9 L12,11 L12,11 Z" id="形状" opacity="0.54"></path>
                <polygon id="路径" points="8 0 6 0 6 6 0 6 0 8 6 8 6 14 8 14 8 8 14 8 14 6 8 6"></polygon>
            </g>
            <g id="编组" transform="translate(37, 38)" fill="#000000">
                <path d="M6,14 L8,14 L8,12 L6,12 L6,14 L6,14 Z M3,2 L5,2 L5,0 L3,0 L3,2 L3,2 Z M6,11 L8,11 L8,9 L6,9 L6,11 L6,11 Z M3,14 L5,14 L5,12 L3,12 L3,14 L3,14 Z M0,5 L2,5 L2,3 L0,3 L0,5 L0,5 Z M0,14 L2,14 L2,12 L0,12 L0,14 L0,14 Z M0,2 L2,2 L2,0 L0,0 L0,2 L0,2 Z M0,11 L2,11 L2,9 L0,9 L0,11 L0,11 Z M12,11 L14,11 L14,9 L12,9 L12,11 L12,11 Z M12,14 L14,14 L14,12 L12,12 L12,14 L12,14 Z M12,5 L14,5 L14,3 L12,3 L12,5 L12,5 Z M12,0 L12,2 L14,2 L14,0 L12,0 L12,0 Z M6,2 L8,2 L8,0 L6,0 L6,2 L6,2 Z M9,2 L11,2 L11,0 L9,0 L9,2 L9,2 Z M6,5 L8,5 L8,3 L6,3 L6,5 L6,5 Z M9,14 L11,14 L11,12 L9,12 L9,14 L9,14 Z" id="形状" opacity="0.54"></path>
                <polygon id="路径" points="0 8 14 8 14 6 0 6"></polygon>
            </g>
            <g id="编组" transform="translate(55, 38)" fill="#000000">
                <path d="M3,14 L5,14 L5,12 L3,12 L3,14 L3,14 Z M0,5 L2,5 L2,3 L0,3 L0,5 L0,5 Z M0,2 L2,2 L2,0 L0,0 L0,2 L0,2 Z M3,8 L5,8 L5,6 L3,6 L3,8 L3,8 Z M3,2 L5,2 L5,0 L3,0 L3,2 L3,2 Z M0,14 L2,14 L2,12 L0,12 L0,14 L0,14 Z M0,8 L2,8 L2,6 L0,6 L0,8 L0,8 Z M0,11 L2,11 L2,9 L0,9 L0,11 L0,11 Z M12,0 L12,2 L14,2 L14,0 L12,0 L12,0 Z M12,8 L14,8 L14,6 L12,6 L12,8 L12,8 Z M12,14 L14,14 L14,12 L12,12 L12,14 L12,14 Z M12,5 L14,5 L14,3 L12,3 L12,5 L12,5 Z M12,11 L14,11 L14,9 L12,9 L12,11 L12,11 Z M9,14 L11,14 L11,12 L9,12 L9,14 L9,14 Z M9,8 L11,8 L11,6 L9,6 L9,8 L9,8 Z M9,2 L11,2 L11,0 L9,0 L9,2 L9,2 Z" id="形状" opacity="0.54"></path>
                <polygon id="路径" points="6 14 8 14 8 0 6 0"></polygon>
            </g>
            <g id="形状" transform="translate(73, 38)" fill="#000000">
                <path d="M8,3 L6,3 L6,5 L8,5 L8,3 L8,3 Z M11,6 L9,6 L9,8 L11,8 L11,6 L11,6 Z M8,6 L6,6 L6,8 L8,8 L8,6 L8,6 Z M8,9 L6,9 L6,11 L8,11 L8,9 L8,9 Z M5,6 L3,6 L3,8 L5,8 L5,6 L5,6 Z" opacity="0.54"></path>
                <path d="M0,0 L14,0 L14,14 L0,14 L0,0 Z M12,12 L12,2 L2,2 L2,12 L12,12 Z"></path>
            </g>
            <g id="编组" transform="translate(91, 38)" fill="#000000">
                <path d="M6,8 L8,8 L8,6 L6,6 L6,8 L6,8 Z M6,5 L8,5 L8,3 L6,3 L6,5 L6,5 Z M6,11 L8,11 L8,9 L6,9 L6,11 L6,11 Z M6,14 L8,14 L8,12 L6,12 L6,14 L6,14 Z M3,14 L5,14 L5,12 L3,12 L3,14 L3,14 Z M3,2 L5,2 L5,0 L3,0 L3,2 L3,2 Z M3,8 L5,8 L5,6 L3,6 L3,8 L3,8 Z M12,14 L14,14 L14,12 L12,12 L12,14 L12,14 Z M12,8 L14,8 L14,6 L12,6 L12,8 L12,8 Z M12,11 L14,11 L14,9 L12,9 L12,11 L12,11 Z M12,5 L14,5 L14,3 L12,3 L12,5 L12,5 Z M6,2 L8,2 L8,0 L6,0 L6,2 L6,2 Z M12,0 L12,2 L14,2 L14,0 L12,0 L12,0 Z M9,14 L11,14 L11,12 L9,12 L9,14 L9,14 Z M9,8 L11,8 L11,6 L9,6 L9,8 L9,8 Z M9,2 L11,2 L11,0 L9,0 L9,2 L9,2 Z" id="形状" opacity="0.54"></path>
                <polygon id="路径" points="0 14 2 14 2 0 0 0"></polygon>
            </g>
            <g id="编组" transform="translate(109, 38)" fill="#000000">
                <path d="M3,8 L5,8 L5,6 L3,6 L3,8 L3,8 Z M0,14 L2,14 L2,12 L0,12 L0,14 L0,14 Z M6,14 L8,14 L8,12 L6,12 L6,14 L6,14 Z M6,11 L8,11 L8,9 L6,9 L6,11 L6,11 Z M3,14 L5,14 L5,12 L3,12 L3,14 L3,14 Z M0,11 L2,11 L2,9 L0,9 L0,11 L0,11 Z M6,8 L8,8 L8,6 L6,6 L6,8 L6,8 Z M0,5 L2,5 L2,3 L0,3 L0,5 L0,5 Z M0,8 L2,8 L2,6 L0,6 L0,8 L0,8 Z M12,8 L14,8 L14,6 L12,6 L12,8 L12,8 Z M12,11 L14,11 L14,9 L12,9 L12,11 L12,11 Z M12,5 L14,5 L14,3 L12,3 L12,5 L12,5 Z M6,5 L8,5 L8,3 L6,3 L6,5 L6,5 Z M9,14 L11,14 L11,12 L9,12 L9,14 L9,14 Z M9,8 L11,8 L11,6 L9,6 L9,8 L9,8 Z M12,14 L14,14 L14,12 L12,12 L12,14 L12,14 Z" id="形状" opacity="0.54"></path>
                <polygon id="路径" points="0 0 0 2 14 2 14 0"></polygon>
            </g>
            <g id="编组" transform="translate(127, 38)" fill="#000000">
                <path d="M0,2 L2,2 L2,0 L0,0 L0,2 L0,2 Z M3,2 L5,2 L5,0 L3,0 L3,2 L3,2 Z M3,8 L5,8 L5,6 L3,6 L3,8 L3,8 Z M3,14 L5,14 L5,12 L3,12 L3,14 L3,14 Z M0,5 L2,5 L2,3 L0,3 L0,5 L0,5 Z M0,8 L2,8 L2,6 L0,6 L0,8 L0,8 Z M0,14 L2,14 L2,12 L0,12 L0,14 L0,14 Z M0,11 L2,11 L2,9 L0,9 L0,11 L0,11 Z M9,8 L11,8 L11,6 L9,6 L9,8 L9,8 Z M6,14 L8,14 L8,12 L6,12 L6,14 L6,14 Z M9,14 L11,14 L11,12 L9,12 L9,14 L9,14 Z M6,2 L8,2 L8,0 L6,0 L6,2 L6,2 Z M9,2 L11,2 L11,0 L9,0 L9,2 L9,2 Z M6,11 L8,11 L8,9 L6,9 L6,11 L6,11 Z M6,5 L8,5 L8,3 L6,3 L6,5 L6,5 Z M6,8 L8,8 L8,6 L6,6 L6,8 L6,8 Z" id="形状" opacity="0.54"></path>
                <polygon id="路径" points="12 0 12 14 14 14 14 0"></polygon>
            </g>
            <g id="编组" transform="translate(145, 38)" fill="#000000">
                <path d="M5,0 L3,0 L3,2 L5,2 L5,0 L5,0 Z M8,6 L6,6 L6,8 L8,8 L8,6 L8,6 Z M8,9 L6,9 L6,11 L8,11 L8,9 L8,9 Z M11,6 L9,6 L9,8 L11,8 L11,6 L11,6 Z M5,6 L3,6 L3,8 L5,8 L5,6 L5,6 Z M11,0 L9,0 L9,2 L11,2 L11,0 L11,0 Z M8,3 L6,3 L6,5 L8,5 L8,3 L8,3 Z M8,0 L6,0 L6,2 L8,2 L8,0 L8,0 Z M2,9 L0,9 L0,11 L2,11 L2,9 L2,9 Z M12,11 L14,11 L14,9 L12,9 L12,11 L12,11 Z M12,5 L14,5 L14,3 L12,3 L12,5 L12,5 Z M12,8 L14,8 L14,6 L12,6 L12,8 L12,8 Z M12,0 L12,2 L14,2 L14,0 L12,0 L12,0 Z M2,0 L0,0 L0,2 L2,2 L2,0 L2,0 Z M2,3 L0,3 L0,5 L2,5 L2,3 L2,3 Z M2,6 L0,6 L0,8 L2,8 L2,6 L2,6 Z" id="形状" opacity="0.54"></path>
                <polygon id="路径" points="0 14 14 14 14 12 0 12"></polygon>
            </g>
            <g id="编组" transform="translate(163, 38)" fill="#000000" opacity="0.54">
                <path d="M6,14 L8,14 L8,12 L6,12 L6,14 L6,14 Z M3,8 L5,8 L5,6 L3,6 L3,8 L3,8 Z M3,2 L5,2 L5,0 L3,0 L3,2 L3,2 Z M6,11 L8,11 L8,9 L6,9 L6,11 L6,11 Z M3,14 L5,14 L5,12 L3,12 L3,14 L3,14 Z M0,5 L2,5 L2,3 L0,3 L0,5 L0,5 Z M0,14 L2,14 L2,12 L0,12 L0,14 L0,14 Z M0,2 L2,2 L2,0 L0,0 L0,2 L0,2 Z M0,8 L2,8 L2,6 L0,6 L0,8 L0,8 Z M6,8 L8,8 L8,6 L6,6 L6,8 L6,8 Z M0,11 L2,11 L2,9 L0,9 L0,11 L0,11 Z M12,11 L14,11 L14,9 L12,9 L12,11 L12,11 Z M12,14 L14,14 L14,12 L12,12 L12,14 L12,14 Z M12,8 L14,8 L14,6 L12,6 L12,8 L12,8 Z M12,5 L14,5 L14,3 L12,3 L12,5 L12,5 Z M12,0 L12,2 L14,2 L14,0 L12,0 L12,0 Z M6,2 L8,2 L8,0 L6,0 L6,2 L6,2 Z M9,2 L11,2 L11,0 L9,0 L9,2 L9,2 Z M6,5 L8,5 L8,3 L6,3 L6,5 L6,5 Z M9,14 L11,14 L11,12 L9,12 L9,14 L9,14 Z M9,8 L11,8 L11,6 L9,6 L9,8 L9,8 Z" id="形状"></path>
            </g>
            <g id="编组" transform="translate(183, 36.99)" fill="#000000">
                <path d="M6.5,2.63 L0,9.13 L0,12.01 L2.88,12.01 L9.38,5.51 L6.5,2.63 Z M11.85,3.03 C12.05,2.83 12.05,2.52 11.85,2.32 L9.68,0.15 C9.48,-0.05 9.17,-0.05 8.97,0.15 L7.62,1.51 L10.5,4.39 L11.85,3.03 L11.85,3.03 Z" id="形状"></path>
            </g>
            <g id="编组" transform="translate(199, 40)" fill="#000000">
                <path d="M0,0 L14,0 L14,2 L0,2 L0,0 Z M0,4 L6,4 L6,6 L0,6 L0,4 Z M0,8 L2,8 L2,10 L0,10 L0,8 Z M8,4 L14,4 L14,6 L8,6 L8,4 Z M4,8 L6,8 L6,10 L4,10 L4,8 Z M8,8 L10,8 L10,10 L8,10 L8,8 Z M12,8 L14,8 L14,10 L12,10 L12,8 Z" id="形状"></path>
            </g>
            <g id="编组" transform="translate(222, 41)" fill="#000000">
                <polygon id="路径" transform="translate(2, 4) rotate(90) translate(-2, -4)" points="-2 2 2 6 6 2"></polygon>
            </g>
            <g id="编组" transform="translate(238.47, 41.47)" fill="#000000">
                <polygon id="路径" points="7.06 1.06 6 8.8817842e-16 3.53 2.47 1.06 8.8817842e-16 8.8817842e-16 1.06 2.47 3.53 8.8817842e-16 6 1.06 7.06 3.53 4.59 6 7.06 7.06 6 4.59 3.53"></polygon>
            </g>
            <g id="编组" transform="translate(3.5, 60.44)" fill="#000000">
                <polygon id="路径" points="7.94 -8.8817842e-16 4.5 3.44 1.06 -8.8817842e-16 0 1.06 4.5 5.56 9 1.06"></polygon>
            </g>
            <g id="编组" transform="translate(21.5, 60)" fill="#000000">
                <polygon id="路径" points="4.5 0 0 4.5 1.06 5.56 4.5 2.12 7.94 5.56 9 4.5"></polygon>
            </g>
            <g id="编组" transform="translate(41, 58.5)" fill="#000000">
                <polygon id="路径" transform="translate(2.78, 4.5) rotate(90) translate(-2.78, -4.5)" points="6.22 1.72 2.78 5.16 -0.66 1.72 -1.72 2.78 2.78 7.28 7.28 2.78"></polygon>
            </g>
            <g id="编组" transform="translate(59.44, 58.5)" fill="#000000">
                <polygon id="路径" transform="translate(2.78, 4.5) rotate(90) translate(-2.78, -4.5)" points="2.78 1.72 -1.72 6.22 -0.66 7.28 2.78 3.84 6.22 7.28 7.28 6.22"></polygon>
            </g>
            <g id="编组" transform="translate(74, 57)" fill="#000000">
                <polygon id="路径" transform="translate(6, 6) scale(-1, 1) translate(-6, -6)" points="12 5 3.125 5 7.06 1.06 6 0 0 6 6 12 7.06 10.94 3.125 7 12 7"></polygon>
            </g>
            <g id="编组" transform="translate(92, 57)" fill="#000000">
                <polygon id="路径" points="12 5 3.125 5 7.06 1.06 6 0 0 6 6 12 7.06 10.94 3.125 7 12 7"></polygon>
            </g>
        </g>
    </g>
</svg>